<?xml version="1.0" standalone="no"?>
<!DOCTYPE svg PUBLIC "-//W3C//DTD SVG 1.1//EN" "http://www.w3.org/Graphics/SVG/1.1/DTD/svg11.dtd">
<svg xmlns="http://www.w3.org/2000/svg">
<metadata>Generated by Fontastic.me</metadata>
<defs>
<font id="la-nacion" horiz-adv-x="512">
<font-face font-family="la-nacion" units-per-em="512" ascent="480" descent="-32"/>
<missing-glyph horiz-adv-x="512" />

<glyph unicode="&#97;" d="M477 383c-15-8-32-13-50-15 18 12 32 30 39 51-18-10-36-18-57-22-16 18-39 29-64 29-49 0-88-41-88-93 0-7 1-14 2-21-73 4-138 41-182 97-8-14-12-29-12-46 0-33 16-61 39-78-14 1-28 5-40 12l0-1c0-45 31-83 71-91-7-2-15-3-23-3-6 0-11 0-17 1 12-37 44-63 83-64-30-25-68-40-110-40-7 0-14 1-21 1 39-26 86-41 135-41 163 0 252 141 252 264 0 4 0 8-1 12 18 13 33 29 44 48z"/>
<glyph unicode="&#98;" d="M306 389l69 0 0 81-69 0c-56 0-102-48-102-107l0-41-68 0 0-82 68 0 0-199 85 0 0 199 86 0 0 82-86 0 0 42c0 14 9 25 17 25z"/>
<glyph unicode="&#99;" d="M268 472c-119 0-180-86-180-157 0-44 17-82 52-97 6-2 11 0 12 6l6 21c1 6 1 8-4 14-10 12-17 27-17 49 0 64 48 121 124 121 68 0 105-41 105-97 0-72-32-134-80-134-26 0-46 22-39 49 7 32 22 66 22 89 0 21-11 38-34 38-27 0-49-27-49-65 0-24 8-40 8-40l-32-138c-10-40-1-90-1-95 1-3 4-4 6-2 3 3 35 43 46 83 3 11 17 69 17 69 9-17 35-31 62-31 81 0 136 74 136 173 0 75-64 144-160 144z"/>
<glyph unicode="&#101;" d="M174 13c3 0 5 2 6 4l124 234c1 2 1 4 0 6l-124 234c-1 4-6 5-9 3-4-2-5-6-3-10l121-230-121-230c-2-4-1-8 3-10 1 0 2-1 3-1z"/>
<glyph unicode="&#102;" d="M298 13c-3 0-5 2-7 4l-123 234c-1 2-1 4 0 6l123 234c2 4 6 5 10 3 3-2 5-6 3-10l-122-230 122-230c2-4 0-8-3-10-1 0-2-1-3-1z"/>
<glyph unicode="&#100;" d="M64 416l0-64 384 0 0 64z m0-192l384 0 0 64-384 0z m0-128l384 0 0 64-384 0z"/>
<glyph unicode="&#103;" d="M273 369l0-91 87 0 0-31-87 0 0-92-33 0 0 92-88 0 0 31 88 0 0 91z m-17-346c-129 0-234 104-234 233 0 129 105 234 234 234 129 0 234-105 234-234 0-129-105-233-234-233z m0 436c-112 0-203-91-203-203 0-111 91-203 203-203 112 0 203 92 203 203 0 112-91 203-203 203z"/>
<glyph unicode="&#104;" d="M256 464c115 0 208-93 208-208 0-115-93-208-208-208-115 0-208 93-208 208 0 115 93 208 208 208z m0-17c-105 0-191-86-191-191 0-47 17-89 45-122 18 8 62 24 90 32 2 1 3 0 3 10 0 11-1 18-4 24-4 8-7 20-9 31-4 5-10 15-14 33-3 16-1 22 1 28l0 2c1 4 0 23-3 38-2 10 1 34 15 52 9 12 27 26 58 28l18 0c32-2 49-16 58-28 14-18 17-42 15-52-3-15-4-34-3-38 0 0 1-1 1-2 2-6 3-12 0-28-4-18-10-27-14-32-2-11-5-24-9-32-3-7-6-15-6-23 0-10 0-10 2-11 27-8 73-24 93-32 28 33 45 76 45 122 0 105-86 191-191 191z"/>
<glyph unicode="&#107;" d="M512 256c0-33-11-64-34-92-23-28-54-50-93-66-40-17-83-25-129-25-13 0-27 1-41 2-38-33-82-56-132-69-9-2-20-4-32-6-4 0-7 0-9 3-3 2-4 4-5 8l0 0c-1 1-1 2 0 4 0 1 0 2 0 2 0 1 1 2 2 3l1 3c0 0 1 1 2 2 2 2 2 3 3 3 1 1 4 5 8 10 5 5 8 8 10 10 2 3 5 6 9 12 4 5 7 10 9 14 3 5 5 10 8 17 3 7 5 14 8 22-30 17-54 38-71 63-17 25-26 51-26 80 0 25 7 48 20 71 14 23 32 42 55 58 23 17 50 30 82 39 31 10 64 15 99 15 46 0 89-8 129-25 39-16 70-38 93-66 23-28 34-59 34-92z"/>
<glyph unicode="&#106;" d="M297 459c0 0 162 0 162 0 0 0 0-162 0-162 0 0-51 63-51 63 0 0-75-77-75-77 0 0-51 51-51 51 0 0 77 75 77 75 0 0-62 50-62 50m-118-228c0 0 51-51 51-51 0 0-77-75-77-75 0 0 62-51 62-51 0 0-162 0-162 0 0 0 0 162 0 162 0 0 51-62 51-62 0 0 75 77 75 77"/>
<glyph unicode="&#108;" d="M49 487l0-466 413 233z"/>
<glyph unicode="&#109;" d="M397 352l19-21-160-171-160 171 19 21 141-150z"/>
<glyph unicode="&#110;" d="M440 409l-368 0c-7 0-13-6-13-13l0-27c0-1 1-2 2-3l194-110c0-1 1-1 1-1 1 0 2 0 2 1l188 110c1 1 3 2 5 3 1 1 2 1 2 3l0 24c0 7-6 13-13 13z m11-80c-1 1-2 1-3 0l-106-62c-1 0-1-1-2-2 0-1 1-2 1-3l106-115c1 0 2-1 3-1 0 0 1 1 1 1 1 0 2 1 2 3l0 177c0 1 0 2-2 2z m-140-83c-1 1-2 1-4 1l-42-25c-5-3-12-3-17-1l-37 22c-1 1-3 0-4-1l-142-131c-1-1-1-2-1-3 0-1 1-2 1-3 3-1 5-2 7-2l364 0c2 0 3 1 3 2 1 2 1 3 0 4z m-135 12c1 1 1 2 1 3 0 1-1 2-2 2l-111 64c-1 1-2 0-4 0-1-1-1-2-1-3l0-167c0-1 1-2 2-3 0 0 1 0 1 0 1 0 2 0 2 1z"/>
<glyph unicode="&#111;" d="M256 312c16 0 29-5 40-16 11-11 16-24 16-40 0-15-5-28-16-39-11-12-24-17-40-17-16 0-29 5-40 17-11 11-16 24-16 39 0 16 5 29 16 40 11 11 24 16 40 16"/>
<glyph unicode="&#113;" d="M128 256c0 71 57 128 128 128 71 0 128-57 128-128 0-71-57-128-128-128-71 0-128 57-128 128z"/>
<glyph unicode="&#114;" d="M45 475l163 0 0-430-163 0z m261 0l162 0 0-430-162 0z"/>
<glyph unicode="&#116;" d="M463 332c0 5-4 9-9 9l-67 0 0 110c0 5-5 10-10 10l-242 0c-5 0-10-5-10-10l0-110-67 0c0 0 0 0 0 0-5 0-9-4-9-9l0 0 0-188c0-5 4-10 9-10l67 0 0 79 262 0 0-79 67 0c5 0 9 5 9 10l0 188z m-102-33l-210 0 0 127c0 5 4 9 9 9l192 0c5 0 9-4 9-9l0-127z m-209-238c0-5 4-10 9-10l190 0c5 0 9 5 9 10l0 126-208 0z"/>
<glyph unicode="&#117;" d="M495 178c7-3 11-9 14-16 3-8 4-15 2-21 0 0-14-79-14-79-2-6-6-12-12-16-6-5-13-7-20-7 0 0-418 0-418 0-8 0-14 2-21 7-6 4-9 10-11 16 0 0-14 79-14 79-4 17 2 29 16 37 0 0 81 55 81 55 0 0 50 0 50 0 0 0-87-66-87-66 0 0 91 0 91 0 3 0 5-1 7-4 0 0 20-57 20-57 0 0 154 0 154 0 0 0 20 57 20 57 3 3 5 4 6 4 0 0 91 0 91 0 0 0-87 66-87 66 0 0 51 0 51 0 0 0 81-55 81-55m-106 165c0 0-133-125-133-125 0 0-133 125-133 125 0 0 85 0 85 0 0 0 0 131 0 131 0 0 97 0 97 0 0 0 0-131 0-131 0 0 84 0 84 0"/>
<glyph unicode="&#118;" d="M458 372c13-1 23-12 22-24l-14-263c-1-13-12-22-25-21l-330 16c-13 1-23 10-22 23l2 46-15-1c-12-1-22 7-23 18l-21 236c-1 11 7 21 19 22l296 24c12 1 22-7 23-18l5-54z m-355-6c1 12 11 22 24 22l219-11-2 31-1 0 0 1c-1 5-5 8-10 8l-261-22c-5 0-10-4-10-9l0-1 16-178 18 25z m334-236l10 198 0 1c0 6-5 10-11 10l-58 3-29 2-204 9c-6 0-11-4-12-9l0-1-3-63-7-128 0-7 6 7 102 109c4 4 8 6 14 6 6 0 11-3 14-7l43-49 3-3c2-2 6-4 10-4 4 0 5 1 9 3l17 12c4 3 7 4 11 4 4 0 9-2 11-5l27-33z m-64 120c-20 0-35 15-35 35 0 20 16 35 35 35 20 0 35-16 35-35 0-19-16-35-35-35z"/>
<glyph unicode="&#119;" d="M304 416l0-64 64 0 0-16-80 0 0 80z m21 32l75-75 0-261-48 0 0-48-240 0 0 336 48 0 0 48z m11-368l0 32-176 0 0 272-32 0 0-304z m48 48l0 238-65 66-143 0 0-304z"/>
<glyph unicode="&#120;" d="M270 104l-95 88-104 0 0 128 104 0 95 88z m56 52l-20 16c17 24 28 52 28 84 0 32-11 60-28 84l20 16c20-28 33-63 33-100 0-37-13-72-33-100z m67-46l-21 16c27 36 43 81 43 130 0 49-16 94-43 130l21 16c30-41 48-91 48-146 0-55-18-105-48-146z"/>
<glyph unicode="&#121;" d="M265 416l-18 0c-65 0-118-2-168-4l-2 0c-23 0-42-22-42-49l0-2c-2-34-3-70-3-105 0-35 1-70 3-104l0-3c0-14 5-26 14-36 8-9 17-13 28-13l2 0c52-2 108-4 166-4l22 0c58 0 113 2 166 4l2 0c11 0 20 4 28 13 9 10 14 22 14 36l0 3c2 34 3 68 3 104 0 36-1 71-3 105l0 3c0 27-19 49-42 49l-2 0c-49 2-103 3-168 3z m0 32c58 0 115 0 170-3 41 0 74-36 74-81 2-36 3-72 3-108 0-36-1-71-3-107 0-45-33-81-74-81-55-3-111-4-168-4l-22 0c-57 0-113 1-168 4-41 0-74 36-74 81-2 36-3 71-3 107 0 36 2 71 4 107 0 45 32 82 73 82 55 2 112 3 170 3z m-58-290l0 197 145-99z"/>
<glyph unicode="&#122;" d="M176 96l0 320 64 0 0-320z m-96 0l0 96 64 0 0-96z m192 0l0 160 64 0 0-160z m96 0l0 224 64 0 0-224z"/>
<glyph unicode="&#65;" d="M445 254l-25 25c-3 3-9 3-12 0l-52-53-60-60-47 47c-3 3-8 3-12 0l-24-25c-4-4-4-9 0-12l52-52 9-9 16-16c3-4 8-4 12 0l24 25 119 118c3 3 3 9 0 12z m-266-32l25 24c21 22 58 22 79 0l13-12 57 54 0 160-288 0 0-352 160 0-46 46c-22 22-22 58 0 80z m-18 194l160 0 0-32-160 0z m0-64l160 0 0-32-160 0z m-32-96l-32 0 0 32 32 0z m0 64l-32 0 0 32 32 0z m0 64l-32 0 0 32 32 0z m32-96l32 0 0-32-32 0z"/>
<glyph unicode="&#66;" d="M257 365c-62 0-112-51-112-112 0-62 50-112 112-112 61 0 112 50 112 112 0 61-51 112-112 112z m0 32c-12 0-22 10-22 22l0 35c0 12 10 22 22 22 12 0 22-10 22-22l0-35c0-12-10-22-22-22z m0-289c-12 0-22-10-22-22l0-34c0-12 10-22 22-22 12 0 22 10 22 22l0 34c0 12-10 22-22 22z m102 247c-8 9-8 22 0 31l25 25c8 8 22 8 31 0 8-9 8-23 0-31l-25-25c-9-8-22-8-31 0z m-204-204c-9 8-23 8-31 0l-25-25c-8-9-8-22 0-31 9-8 22-8 31 0l25 25c8 8 8 22 0 31z m246 102c0 12 10 22 22 22l35 0c12 0 22-10 22-22 0-12-10-22-22-22l-35 0c-12 0-22 10-22 22z m-289 0c0 12-9 22-22 22l-34 0c-12 0-22-10-22-22 0-12 10-22 22-22l34 0c13 0 22 10 22 22z m247-102c9 8 22 8 31 0l25-25c8-9 8-22 0-31-9-8-23-8-31 0l-25 25c-8 8-8 22 0 31z m-204 204c8 9 8 22 0 31l-25 25c-9 8-22 8-31 0-8-9-8-23 0-31l25-25c8-8 22-8 31 0z"/>
<glyph unicode="&#67;" d="M284 325l0-293-56 0 0 293-124 0 0 56 124 0 0 99 56 0 0-99 124 0 0-56z"/>
<glyph unicode="&#68;" d="M367 383c17 0 30 14 30 30l0 32c0 17-13 30-30 30-17 0-30-13-30-30l0-32c0-16 13-30 30-30z m107 40l-61 0 0-15c0-26-20-46-46-46-25 0-46 20-46 46l0 15-123 0 0-15c0-26-20-46-46-46-25 0-46 20-46 46l0 15-61 1 0-385 399 0 31 0z m-30-354l-369 0 0 246 369 0z m-292 314c16 0 30 14 30 30l0 32c0 17-14 30-30 30-17 0-31-13-31-30l0-32c0-16 14-30 31-30z m66-234c6-3 20-9 35-9 18 0 27 9 27 20 0 15-15 22-30 22l-14 0 0 25 13 0c12 0 27 5 27 18 0 9-7 15-22 15-12 0-25-5-32-9l-7 26c9 6 27 11 47 11 32 0 50-17 50-37 0-16-9-29-28-35l0-1c18-3 33-17 33-37 0-26-23-46-62-46-19 0-36 5-45 11z"/>
<glyph unicode="&#69;" d="M468 298c-9 95-45 176-46 180-3 7-10 12-18 14-8 1-16-2-22-8-51-53-97-84-145-97-49-13-103-9-169 12-8 2-17 1-23-5-6-5-10-13-9-21 1-4 11-92 51-178 55-120 140-178 246-168 1 1 2 1 4 1 1 0 2 1 3 2 97 44 141 137 128 268z m-360-21c-1 20 24 38 56 41 33 2 60-12 62-32 1-20-25-27-57-29-33-3-59 0-61 20z m208-171c-60-17-116-2-126 32 0 2-1 5-1 7 29-12 72-14 117-2 44 12 80 35 99 61 1-3 2-5 3-7 9-34-32-75-92-91z m50 204c-29-14-55-21-64-3-9 18 8 44 37 58 30 14 60 12 69-6 9-18-13-34-42-49z"/>
<glyph unicode="&#70;" d="M160 384l32 32 160-160-160-160-32 32 127 128z"/>
<glyph unicode="&#70;" d="M144 117l32-84c1-2 3-3 5-2 1 0 2 0 2 1 1 1 2 2 2 3l0 98 108 108 67-174c3-5 9-9 15-8 2 1 5 2 7 4 2 2 3 6 3 9l0 262 58 57c14 15 40 64 25 78-14 14-63-11-77-26l-58-57-261 0c-7 0-12-5-13-11-1-6 2-12 8-14l173-68-106-107-101 0c-2 0-4-1-4-3 0-2 1-5 3-5l84-34"/>
<glyph unicode="&#71;" d="M453 76l0 31-71 0 0-31c1-55 71-56 71 0z m-324 0l0 31-71 0 0-31c0-56 71-55 71 0z m362 96l0 109c0 38-27 58-43 61l-38 111c-8 21-23 39-53 39l-203 0c-29 0-45-18-52-39l-39-111c-15-3-42-23-42-61l0-109c0-18 13-32 29-32l412 0c16 0 29 14 29 32z m-391 48l-1 0c-18 0-32 16-32 37 0 21 14 37 32 37l1 0c18 0 32-16 32-37 0-21-14-37-32-37z m156 123l-121 0c-11 0-18 12-14 23l20 53c3 9 9 22 22 22l185 0c12 0 16-8 22-22l20-53c4-11-3-23-14-23z m154-126l-1 0c-18 0-32 17-32 37 0 21 14 38 32 38l1 0c18 0 32-17 32-38 0-20-15-37-32-37z"/>
<glyph unicode="&#73;" d="M486 282c0-7-5-12-12-12l-180 0c-7 0-13 5-13 12l0 180c0 7 6 13 13 13l180 0c7 0 12-6 12-13z m-255-241c0-7-6-13-13-13l-180 0c-7 0-12 6-12 13l0 180c0 7 5 12 12 12l180 0c7 0 13-5 13-12z m150 137c-9 0-14-8-14-17 0-8 4-17 13-17 10 0 16 7 16 17 0 9-5 17-15 17z m93 55l-180 0c-7 0-13-5-13-12l0-180c0-7 6-13 13-13l180 0c7 0 12 6 12 13l0 180c0 7-5 12-12 12z m-49-144c-10-17-26-24-46-24-24 0-43 12-47 36l35 6c1-7 6-13 13-13 16 0 18 19 18 31l0 4c-6-10-15-14-26-14-26 0-43 18-43 44 0 31 24 47 52 47 41 0 57-31 57-68 0-17-4-34-13-49z m-194 193l0 180c0 7-6 13-13 13l-180 0c-7 0-12-6-12-13l0-180c0-7 5-12 12-12l180 0c7 0 13 5 13 12z m-109 24c-30 0-51 14-58 44l35 5c2-11 9-19 21-19 8 0 17 4 17 14 0 5-3 10-7 12-4 3-10 2-14 2l-14 0 0 29 11 0c4 0 10 0 14 1 4 2 6 7 6 11 0 8-6 13-14 13-10 0-16-7-17-16l-33 6c6 26 28 40 54 40 10 0 23-3 32-8 10-6 17-18 17-30 0-14-7-26-20-30 16-5 25-15 25-32 0-31-28-42-55-42z"/>
<glyph unicode="&#76;" d="M465 434c0 3 0 6-2 9-1 4-3 7-5 9 0 0-1 0-1 0-2 3-5 5-9 6-3 2-7 3-10 3l-150 0c-15 0-28-13-28-28 0-16 13-28 28-28l82 0-134-134-48 50c-11 11-29 11-40 1-11-11-11-29 0-40l48-50-150-151c-11-11-11-28 0-39 5-6 12-9 19-9 8 0 15 3 20 9l150 149 55-57c6-6 13-8 20-8 7 0 14 2 20 7 11 11 11 29 1 40l-56 58 135 134 0-80c0-15 12-28 28-28 15 0 28 13 28 28l0 148c0 0-1 0-1 1z"/>
<glyph unicode="&#78;" d="M499 90c-37 23-75 28-108 25 33 38 53 87 53 141 0 118-95 213-213 213-118 0-213-95-213-213 0-118 95-213 213-213 31 0 60 6 86 18 1 0 7 3 8 4 24 11 93 37 157-2 7-5 17-2 22 5 5 8 2 18-5 22z m-176 247c24 8 50-6 58-30 8-24-5-50-29-58-25-8-51 6-58 30-8 24 5 50 29 58z m-92 79c26 0 46-20 46-46 0-25-20-46-46-46-25 0-46 21-46 46 0 26 21 46 46 46z m-150-109c8 24 34 38 58 30 24-8 38-34 30-58-8-24-34-38-58-30-24 8-38 34-30 58z m122-166c-15-20-44-25-65-10-20 15-25 44-10 64 15 21 44 25 65 11 20-15 25-44 10-65z m28 97c-10 0-18 8-18 18 0 10 8 18 18 18 10 0 18-8 18-18 0-10-8-18-18-18z m29-97c-15 21-11 50 10 65 20 14 49 10 64-11 15-20 10-49-10-64-21-15-50-10-64 10z"/>
<glyph unicode="&#72;" d="M160 384l32 32 160-160-160-160-32 32 127 128z"/>
<glyph unicode="&#79;" d="M291 459c-91 0-164-74-164-164 0-31 8-60 23-85l-79-79 0 0c-8-8-14-20-14-33 0-25 21-45 46-45 12 0 24 5 32 14l0-1 82 82c22-11 47-17 74-17 90 0 164 73 164 164 0 90-74 164-164 164z m1-263c-57 0-103 45-103 102 0 56 46 102 103 102 56 0 102-46 102-102 0-57-46-102-102-102z"/>
<glyph unicode="&#80;" d="M407 486l-125 0c-32 0-73-4-108-33-26-22-39-53-39-81 0-47 37-95 101-95 6 0 12 1 19 1-3-7-6-13-6-23 0-19 10-30 18-41-27-2-78-5-115-28-36-21-47-52-47-74 0-45 42-86 130-86 104 0 159 57 159 114 0 42-24 62-50 85l-22 17c-7 5-16 12-16 26 0 13 9 21 17 29 25 20 51 41 51 86 0 46-29 70-43 82l37 0z m-53-370c0-37-31-65-89-65-65 0-107 31-107 74 0 43 39 57 52 62 26 9 58 10 64 10 6 0 9 0 14-1 46-32 66-49 66-80z m-49 195c-9-10-26-17-41-17-52 0-75 67-75 108 0 15 3 32 13 45 10 12 26 19 42 19 50 0 77-67 77-111 0-11-2-30-16-44z"/>
<glyph unicode="&#115;" d="M489 71l0-6c0-4-3-7-6-7l-441 0c-11 0-19 9-19 20l0 370c0 4 3 6 6 6l7 0c3 0 6-2 6-6l0-364c0-4 3-6 6-6l435 0c3 0 6-3 6-7z m-402 26l76 0c4 0 7 3 7 6l0 256c0 3-3 6-7 6l-76 0c-4 0-7-3-7-6l0-256c0-3 3-6 7-6z m121 0l77 0c3 0 6 3 6 6l0 307c0 3-3 6-6 6l-77 0c-3 0-6-3-6-6l0-307c0-3 3-6 6-6z m121 0l77 0c4 0 6 3 6 6l0 160c0 3-2 6-6 6l-77 0c-3 0-6-3-6-6l0-160c0-3 3-6 6-6z"/>
<glyph unicode="&#81;" d="M388 460c-34 0-64-14-85-37 67-36 112-107 112-189 0-1 0-2 0-4 51 13 89 59 89 113 0 65-52 117-116 117z m-187-39c-103 0-186-84-186-187 0-103 83-186 186-186 103 0 187 83 187 186 0 103-84 187-187 187z m-4-278c-33 0-63 18-69 52l44 6c2-12 12-19 24-19 12 0 20 9 20 20 0 13-9 21-21 21-8 0-15-4-20-10l-39 5 8 97 113 0-5-41-70 0-3-24c9 6 20 9 31 9 14 0 29-6 39-15 11-11 16-26 16-41 0-38-32-60-68-60z"/>
<glyph unicode="&#83;" d="M249 62l0 4c-1 74-35 115-77 142-42 28-95 38-115 37l-2 0-1 66 3 0c37-1 98-13 156-49 57-36 108-101 107-196l0-5z m140-1l0 6c0 98-38 162-89 207-51 45-117 71-169 83-35 9-64 12-74 12l-1 0-2 65 3 0c29 0 88-8 157-33 67-26 143-70 193-145 33-50 54-113 54-189l0-6z m-339 50c0 27 24 50 55 50 30 0 55-23 55-50 0-28-25-51-55-51-31 0-55 23-55 51z"/>
<glyph unicode="&#84;" d="M353 507c15 0 27-5 37-15 10-10 14-22 14-36 0 0 0-400 0-400 0-13-4-25-14-36-10-10-22-15-37-15 0 0-194 0-194 0-14 0-26 5-36 15-10 11-15 23-15 36 0 0 0 400 0 400 0 14 5 26 15 36 10 10 22 15 36 15 0 0 194 0 194 0m-97-481c10 0 19 2 26 7 6 5 10 11 10 18 0 8-4 14-10 19-7 4-16 7-26 7-10 0-18-3-25-8-7-5-11-11-11-18 0-7 4-13 11-18 7-5 15-7 25-7m108 76c0 0 0 338 0 338 0 0-216 0-216 0 0 0 0-338 0-338 0 0 216 0 216 0"/>
<glyph unicode="&#85;" d="M340 352l12-12-84-84 84-84-12-12-84 84-84-84-12 12 84 84-84 84 12 12 84-84z"/>
<glyph unicode="&#86;" d="M384 247l-256 0 0 17 256 0z"/>
<glyph unicode="&#87;" d="M384 247l-120 0 0-119-17 0 0 119-119 0 0 17 119 0 0 120 17 0 0-120 120 0z"/>
<glyph unicode="&#112;" d="M105 152c0 0-54 51-54 51 0 0 152 0 152 0 0 0 0-152 0-152 0 0-51 54-51 54 0 0-75-79-75-79 0 0-51 51-51 51 0 0 79 75 79 75m381 283c0 0-78-74-78-74 0 0 53-51 53-51 0 0-151 0-151 0 0 0 0 151 0 151 0 0 51-53 51-53 0 0 74 78 74 78 0 0 51-51 51-51"/>
<glyph unicode="&#75;" d="M426 420c-43 43-100 67-161 67-126 0-229-103-229-229 0-40 11-80 31-114l-33-119 121 32c34-18 71-28 110-28l0 0c126 0 228 103 228 229 0 61-23 118-67 162z m-39-258c-5-15-30-29-42-30-11-2-25-3-40 2-9 3-21 7-36 13-63 28-104 91-107 95-4 5-26 34-26 65 0 31 16 47 22 53 6 6 13 8 17 8 4 0 8 0 12-1 4 0 9 2 14-10 5-13 18-44 19-47 2-3 3-7 1-11-2-4-3-7-6-11-4-3-7-8-10-11-3-3-6-6-3-12 4-7 17-27 35-44 24-21 45-28 51-31 6-3 10-3 14 1 3 5 15 19 19 25 5 6 9 5 15 3 5-2 36-17 43-20 6-3 10-5 12-8 1-2 1-15-4-29z"/>
<glyph unicode="&#105;" d="M269 232l189 193c-3 1-7 2-10 2l-384 0c-3 0-6-1-10-2l190-193c6-6 18-6 25 0z m25-26c-10-10-24-16-38-16-14 0-28 5-38 16l-189 192c0-3 0-5 0-8l0-268c0-20 16-37 35-37l384 0c19 0 35 17 35 37l0 268c0 3 0 5 0 8z"/>
<glyph unicode="&#82;" d="M477 350c0-7-2-14-8-19l-206-207-39-39c-6-5-12-8-20-8-7 0-14 3-19 8l-142 142c-6 6-8 12-8 20 0 7 2 14 8 19l38 39c6 5 12 8 20 8 7 0 14-3 19-8l84-84 188 188c5 5 12 8 19 8 8 0 14-3 20-8l38-39c6-6 8-12 8-20z"/>
<glyph unicode="&#88;" d="M397 160l-141 150-141-150-19 21 160 171 160-171z"/>
<glyph unicode="&#74;" d="M343 303l165 0 0-6-165 0z m-89-93l-4 5 92 88 5-5z m-1 0l-89 91 4 4 90-90z m-249 95l165 0 0-7-165 0z"/>
<glyph unicode="&#77;" d="M244 509l7 0 0-165-7 0z m94-254l-5-4-88 92 5 5z m0-1l-91-89-5 4 91 90z m-95-84l6 0 0-166-6 0z"/>
</font>
</defs>
</svg>
